<svg width="445" height="90" viewBox="0 0 445 90" fill="none" xmlns="http://www.w3.org/2000/svg">
<path d="M75.9375 13.1875C76.7708 13.1875 77.4583 13.4792 78 14.0625C78.5833 14.6042 78.875 15.2917 78.875 16.125V26H65.8125V16.125C65.8125 15.2917 65.5208 14.6042 64.9375 14.0625C64.3958 13.4792 63.7083 13.1875 62.875 13.1875H16.5C15.6667 13.1875 14.9583 13.4792 14.375 14.0625C13.8333 14.6042 13.5625 15.2917 13.5625 16.125V35.875C13.5625 36.7083 13.8333 37.4167 14.375 38C14.9583 38.5417 15.6667 38.8125 16.5 38.8125H62.875C63.7083 38.8125 64.3958 39.1042 64.9375 39.6875C65.5208 40.2292 65.8125 40.9167 65.8125 41.75V48.625C65.8125 49.4583 66.0833 50.1667 66.625 50.75C67.2083 51.3333 67.9167 51.625 68.75 51.625H75.9375C76.7708 51.625 77.4583 51.9167 78 52.5C78.5833 53.0417 78.875 53.7292 78.875 54.5625V74.25C78.875 75.0833 78.5833 75.7917 78 76.375C77.4583 76.9167 76.7708 77.1875 75.9375 77.1875H68.75C67.9167 77.1875 67.2083 77.4792 66.625 78.0625C66.0833 78.6042 65.8125 79.2917 65.8125 80.125V87.0625C65.8125 87.8958 65.5208 88.6042 64.9375 89.1875C64.3958 89.7292 63.7083 90 62.875 90H16.5C15.6667 90 14.9583 89.7292 14.375 89.1875C13.8333 88.6042 13.5625 87.8958 13.5625 87.0625V80.125C13.5625 79.2917 13.2708 78.6042 12.6875 78.0625C12.1458 77.4792 11.4583 77.1875 10.625 77.1875H3.5C2.66667 77.1875 1.95833 76.9167 1.375 76.375C0.791667 75.7917 0.5 75.0833 0.5 74.25V64.375H13.5625V74.25C13.5625 75.0833 13.8333 75.7917 14.375 76.375C14.9583 76.9167 15.6667 77.1875 16.5 77.1875H62.875C63.7083 77.1875 64.3958 76.9167 64.9375 76.375C65.5208 75.7917 65.8125 75.0833 65.8125 74.25V54.5625C65.8125 53.7292 65.5208 53.0417 64.9375 52.5C64.3958 51.9167 63.7083 51.625 62.875 51.625H16.5C15.6667 51.625 14.9583 51.3333 14.375 50.75C13.8333 50.1667 13.5625 49.4583 13.5625 48.625V41.75C13.5625 40.9167 13.2708 40.2292 12.6875 39.6875C12.1458 39.1042 11.4583 38.8125 10.625 38.8125H3.5C2.66667 38.8125 1.95833 38.5417 1.375 38C0.791667 37.4167 0.5 36.7083 0.5 35.875V16.125C0.5 15.2917 0.791667 14.6042 1.375 14.0625C1.95833 13.4792 2.66667 13.1875 3.5 13.1875H10.625C11.4583 13.1875 12.1458 12.9167 12.6875 12.375C13.2708 11.7917 13.5625 11.0833 13.5625 10.25V3.375C13.5625 2.54167 13.8333 1.83333 14.375 1.25C14.9583 0.666667 15.6667 0.375 16.5 0.375H62.875C63.7083 0.375 64.3958 0.666667 64.9375 1.25C65.5208 1.83333 65.8125 2.54167 65.8125 3.375V10.25C65.8125 11.0833 66.0833 11.7917 66.625 12.375C67.2083 12.9167 67.9167 13.1875 68.75 13.1875H75.9375Z" fill="white"/>
<path d="M157.188 48.625C157.188 49.4583 156.896 50.1667 156.312 50.75C155.771 51.3333 155.083 51.625 154.25 51.625H117.875V38.8125H154.25C155.083 38.8125 155.771 38.5417 156.312 38C156.896 37.4167 157.188 36.7083 157.188 35.875V16.125C157.188 15.2917 156.896 14.6042 156.312 14.0625C155.771 13.4792 155.083 13.1875 154.25 13.1875H107.875C107.042 13.1875 106.333 13.4792 105.75 14.0625C105.208 14.6042 104.938 15.2917 104.938 16.125V90H91.875V16.125C91.875 15.2917 92.1667 14.6042 92.75 14.0625C93.3333 13.4792 94.0417 13.1875 94.875 13.1875H102C102.833 13.1875 103.521 12.9167 104.062 12.375C104.646 11.7917 104.938 11.0833 104.938 10.25V3.375C104.938 2.54167 105.208 1.83333 105.75 1.25C106.333 0.666667 107.042 0.375 107.875 0.375H154.25C155.083 0.375 155.771 0.666667 156.312 1.25C156.896 1.83333 157.188 2.54167 157.188 3.375V10.25C157.188 11.0833 157.458 11.7917 158 12.375C158.583 12.9167 159.292 13.1875 160.125 13.1875H167.312C168.146 13.1875 168.833 13.4792 169.375 14.0625C169.958 14.6042 170.25 15.2917 170.25 16.125V35.875C170.25 36.7083 169.958 37.4167 169.375 38C168.833 38.5417 168.146 38.8125 167.312 38.8125H160.125C159.292 38.8125 158.583 39.1042 158 39.6875C157.458 40.2292 157.188 40.9167 157.188 41.75V48.625Z" fill="white"/>
<path d="M196.312 3.375C196.312 2.54167 196.583 1.83333 197.125 1.25C197.708 0.666667 198.417 0.375 199.25 0.375H245.625C246.458 0.375 247.146 0.666667 247.688 1.25C248.271 1.83333 248.562 2.54167 248.562 3.375V10.25C248.562 11.0833 248.833 11.7917 249.375 12.375C249.958 12.9167 250.667 13.1875 251.5 13.1875H258.688C259.521 13.1875 260.208 13.4792 260.75 14.0625C261.333 14.6042 261.625 15.2917 261.625 16.125V26H248.562V16.125C248.562 15.2917 248.271 14.6042 247.688 14.0625C247.146 13.4792 246.458 13.1875 245.625 13.1875H199.25C198.417 13.1875 197.708 13.4792 197.125 14.0625C196.583 14.6042 196.312 15.2917 196.312 16.125V35.875C196.312 36.7083 196.583 37.4167 197.125 38C197.708 38.5417 198.417 38.8125 199.25 38.8125H235.5V51.625H199.25C198.417 51.625 197.708 51.9167 197.125 52.5C196.583 53.0417 196.312 53.7292 196.312 54.5625V74.25C196.312 75.0833 196.583 75.7917 197.125 76.375C197.708 76.9167 198.417 77.1875 199.25 77.1875H245.625C246.458 77.1875 247.146 76.9167 247.688 76.375C248.271 75.7917 248.562 75.0833 248.562 74.25V64.375H261.625V74.25C261.625 75.0833 261.333 75.7917 260.75 76.375C260.208 76.9167 259.521 77.1875 258.688 77.1875H251.5C250.667 77.1875 249.958 77.4792 249.375 78.0625C248.833 78.6042 248.562 79.2917 248.562 80.125V87.0625C248.562 87.8958 248.271 88.6042 247.688 89.1875C247.146 89.7292 246.458 90 245.625 90H199.25C198.417 90 197.708 89.7292 197.125 89.1875C196.583 88.6042 196.312 87.8958 196.312 87.0625V80.125C196.312 79.2917 196.021 78.6042 195.438 78.0625C194.896 77.4792 194.208 77.1875 193.375 77.1875H186.25C185.417 77.1875 184.708 76.9167 184.125 76.375C183.542 75.7917 183.25 75.0833 183.25 74.25V54.5625C183.25 53.7292 183.542 53.0417 184.125 52.5C184.708 51.9167 185.417 51.625 186.25 51.625H193.375C194.208 51.625 194.896 51.3333 195.438 50.75C196.021 50.1667 196.312 49.4583 196.312 48.625V41.75C196.312 40.9167 196.021 40.2292 195.438 39.6875C194.896 39.1042 194.208 38.8125 193.375 38.8125H186.25C185.417 38.8125 184.708 38.5417 184.125 38C183.542 37.4167 183.25 36.7083 183.25 35.875V16.125C183.25 15.2917 183.542 14.6042 184.125 14.0625C184.708 13.4792 185.417 13.1875 186.25 13.1875H193.375C194.208 13.1875 194.896 12.9167 195.438 12.375C196.021 11.7917 196.312 11.0833 196.312 10.25V3.375Z" fill="white"/>
<path d="M350.062 13.1875C350.896 13.1875 351.583 13.4792 352.125 14.0625C352.708 14.6042 353 15.2917 353 16.125V26H339.938V16.125C339.938 15.2917 339.646 14.6042 339.062 14.0625C338.521 13.4792 337.833 13.1875 337 13.1875H290.625C289.792 13.1875 289.083 13.4792 288.5 14.0625C287.958 14.6042 287.688 15.2917 287.688 16.125V74.25C287.688 75.0833 287.958 75.7917 288.5 76.375C289.083 76.9167 289.792 77.1875 290.625 77.1875H337C337.833 77.1875 338.521 76.9167 339.062 76.375C339.646 75.7917 339.938 75.0833 339.938 74.25V64.375H353V74.25C353 75.0833 352.708 75.7917 352.125 76.375C351.583 76.9167 350.896 77.1875 350.062 77.1875H342.875C342.042 77.1875 341.333 77.4792 340.75 78.0625C340.208 78.6042 339.938 79.2917 339.938 80.125V87.0625C339.938 87.8958 339.646 88.6042 339.062 89.1875C338.521 89.7292 337.833 90 337 90H290.625C289.792 90 289.083 89.7292 288.5 89.1875C287.958 88.6042 287.688 87.8958 287.688 87.0625V80.125C287.688 79.2917 287.396 78.6042 286.812 78.0625C286.271 77.4792 285.583 77.1875 284.75 77.1875H277.625C276.792 77.1875 276.083 76.9167 275.5 76.375C274.917 75.7917 274.625 75.0833 274.625 74.25V16.125C274.625 15.2917 274.917 14.6042 275.5 14.0625C276.083 13.4792 276.792 13.1875 277.625 13.1875H284.75C285.583 13.1875 286.271 12.9167 286.812 12.375C287.396 11.7917 287.688 11.0833 287.688 10.25V3.375C287.688 2.54167 287.958 1.83333 288.5 1.25C289.083 0.666667 289.792 0.375 290.625 0.375H337C337.833 0.375 338.521 0.666667 339.062 1.25C339.646 1.83333 339.938 2.54167 339.938 3.375V10.25C339.938 11.0833 340.208 11.7917 340.75 12.375C341.333 12.9167 342.042 13.1875 342.875 13.1875H350.062Z" fill="white"/>
<path d="M441.438 13.1875C442.271 13.1875 442.958 13.4792 443.5 14.0625C444.083 14.6042 444.375 15.2917 444.375 16.125V26H431.312V16.125C431.312 15.2917 431.021 14.6042 430.438 14.0625C429.896 13.4792 429.208 13.1875 428.375 13.1875H382C381.167 13.1875 380.458 13.4792 379.875 14.0625C379.333 14.6042 379.062 15.2917 379.062 16.125V35.875C379.062 36.7083 379.333 37.4167 379.875 38C380.458 38.5417 381.167 38.8125 382 38.8125H428.375C429.208 38.8125 429.896 39.1042 430.438 39.6875C431.021 40.2292 431.312 40.9167 431.312 41.75V48.625C431.312 49.4583 431.583 50.1667 432.125 50.75C432.708 51.3333 433.417 51.625 434.25 51.625H441.438C442.271 51.625 442.958 51.9167 443.5 52.5C444.083 53.0417 444.375 53.7292 444.375 54.5625V74.25C444.375 75.0833 444.083 75.7917 443.5 76.375C442.958 76.9167 442.271 77.1875 441.438 77.1875H434.25C433.417 77.1875 432.708 77.4792 432.125 78.0625C431.583 78.6042 431.312 79.2917 431.312 80.125V87.0625C431.312 87.8958 431.021 88.6042 430.438 89.1875C429.896 89.7292 429.208 90 428.375 90H382C381.167 90 380.458 89.7292 379.875 89.1875C379.333 88.6042 379.062 87.8958 379.062 87.0625V80.125C379.062 79.2917 378.771 78.6042 378.188 78.0625C377.646 77.4792 376.958 77.1875 376.125 77.1875H369C368.167 77.1875 367.458 76.9167 366.875 76.375C366.292 75.7917 366 75.0833 366 74.25V64.375H379.062V74.25C379.062 75.0833 379.333 75.7917 379.875 76.375C380.458 76.9167 381.167 77.1875 382 77.1875H428.375C429.208 77.1875 429.896 76.9167 430.438 76.375C431.021 75.7917 431.312 75.0833 431.312 74.25V54.5625C431.312 53.7292 431.021 53.0417 430.438 52.5C429.896 51.9167 429.208 51.625 428.375 51.625H382C381.167 51.625 380.458 51.3333 379.875 50.75C379.333 50.1667 379.062 49.4583 379.062 48.625V41.75C379.062 40.9167 378.771 40.2292 378.188 39.6875C377.646 39.1042 376.958 38.8125 376.125 38.8125H369C368.167 38.8125 367.458 38.5417 366.875 38C366.292 37.4167 366 36.7083 366 35.875V16.125C366 15.2917 366.292 14.6042 366.875 14.0625C367.458 13.4792 368.167 13.1875 369 13.1875H376.125C376.958 13.1875 377.646 12.9167 378.188 12.375C378.771 11.7917 379.062 11.0833 379.062 10.25V3.375C379.062 2.54167 379.333 1.83333 379.875 1.25C380.458 0.666667 381.167 0.375 382 0.375H428.375C429.208 0.375 429.896 0.666667 430.438 1.25C431.021 1.83333 431.312 2.54167 431.312 3.375V10.25C431.312 11.0833 431.583 11.7917 432.125 12.375C432.708 12.9167 433.417 13.1875 434.25 13.1875H441.438Z" fill="white"/>
</svg>
